<?xml version="1.0" encoding="utf-8"?>
<!-- Generator: Adobe Illustrator 23.0.1, SVG Export Plug-In . SVG Version: 6.00 Build 0)  -->
<svg version="1.1" id="Layer_1" xmlns="http://www.w3.org/2000/svg" xmlns:xlink="http://www.w3.org/1999/xlink" x="0px" y="0px"
	 viewBox="0 0 2100 1500" style="enable-background:new 0 0 2100 1500;" xml:space="preserve">
<style type="text/css">
	.st0{fill:#ED2124;}
	.st1{font-family:'PermanentMarker-Regular';}
	.st2{font-size:750px;}
	.st3{fill-rule:evenodd;clip-rule:evenodd;fill:#ED2124;}
</style>
<text id="Text_inside" transform="matrix(1 0 0 1 451 1021)" class="st0 st1 st2">VM</text>
<path id="Text_Layer" class="st3" d="M1464.8,1176.8l18.8-20.4l-6.4-5.9l-11.6,12.6l-18.5-17c0.8-2.7,3.3-6.9,8.2-12.2
	c13.3-14.4,31.3-15.4,47-0.9c15.6,14.3,15.9,32.8,2,47.9c-5.8,6.3-10.8,9.3-15.3,11.3l4.8,7.9c3.7-1.5,10.5-5.7,17.1-12.8
	c19.1-20.8,17.3-45.9-1.1-63c-9.7-8.9-21-13.2-31-12.6c-11.4,0.7-20.9,6.3-29.5,15.6c-5.9,6.5-10.7,14-14.1,22.2L1464.8,1176.8z
	 M1385.9,1186.1c3.7,3.2,7,6.7,10.1,10.5l14.5,17.3c7.8,9.3,19.3,16.1,33.5,4.2c5.8-4.9,10-11.2,11.8-16.9l-6.6-3.9
	c-1.7,5.3-4.9,10-9.2,13.6c-9.5,7.9-16.3,1.9-19.5-1.9l-0.8-1c18-14.9,22.8-29.4,13.4-40.6c-5.6-6.7-16-9.3-25.3-1.4
	c-5.7,4.5-8.8,11.5-8.4,18.8l-0.3,0.2l-5.6-5.3L1385.9,1186.1z M1407.9,1194.3c-0.7-0.9-1.3-2-1.8-3.1c-2.3-6.1-0.4-13.1,4.7-17.2
	c4.3-3.6,10.1-4.1,14.7,1.4c7.6,9-1.5,19.4-10.9,26.9L1407.9,1194.3z M1365,1201.3l5.1,8.6l-0.3,0.2c-8.1-4.2-15.8-3.2-23.2,1.6
	c-11.3,7.4-16.8,23.8-5,41.9c9.9,15.5,25.7,20.1,38.2,11.9c8.2-5.3,11.6-12.8,11.2-20.6l0.2-0.1l20.8,31.8l9.1-5.9l-40-61.2
	c-2.9-4.5-6.1-9.8-8.1-13.4L1365,1201.3z M1382.6,1231.7c0.8,1.3,1.4,2.7,1.9,4.1c2.7,8.2-0.4,16.4-6.6,20.5
	c-9.8,6.4-20.8,1.2-27.4-9c-7.6-11.6-7-23.2,2.7-29.5c6.7-4.4,14.9-3.5,20.8,1.8c1,0.9,1.8,2,2.6,3.1L1382.6,1231.7z M1312.1,1233.8
	l-9.7,5l14.8,28.7c0.8,1.5,1.4,3.1,1.9,4.8c2.5,8,0.3,15.8-6.6,19.3c-1.1,0.6-2.3,1.1-3.5,1.4l4.8,9.2c1-0.2,2-0.6,2.9-1.1
	c6.6-3.4,10.1-11,8.8-19.5l0.4-0.2l5.8,10.4l8.6-4.4c-2.9-4.8-5.8-10.2-9.1-16.5L1312.1,1233.8z M1264.9,1256.5l24.2,55.4l10.1-4.4
	l-24.2-55.4L1264.9,1256.5z M1303.7,1331.6c3.4-1.4,5.1-5.3,3.7-8.7c0-0.1-0.1-0.2-0.1-0.3c-1.3-3.4-5.1-5-8.5-3.7
	c-0.1,0-0.2,0.1-0.3,0.1c-4,1.8-5.3,5.6-3.7,9c1.3,3.4,5,5.1,8.4,3.8C1303.4,1331.7,1303.5,1331.7,1303.7,1331.6L1303.7,1331.6z
	 M1211.2,1306.1c0.3,1.7,0.8,3.3,1.3,5c3.6,10.5,14.1,25.3,32.8,18.9c16.7-5.7,22.2-22.7,16.4-40s-20.3-25.3-38-19.3
	c-9.1,3.1-14.7,7.1-17.8,10l4.3,6.8c3.3-3,7.4-5.8,14.8-8.3c10.4-3.5,21.4-0.8,26.4,13.2L1211.2,1306.1z M1253.8,1299.9
	c1.6,7.5,0.3,18.8-10.2,22.3c-11.7,4-18.1-5.3-20.2-12L1253.8,1299.9z M1188.4,1282.5l-10.7,2.7l21.4,86.1l10.7-2.6L1188.4,1282.5z
	 M1095.3,1347.2l32.6-3.7l3,26.5l-34.4,3.9l1,9.1l45.2-5.1l-9.4-83.7l-47.1,5.3l1,9.1l36.3-4.1l3.4,30.2l-32.5,3.7L1095.3,1347.2z
	 M1068.1,1298.3c-4.6,0.2-7.4,3.6-7.2,8.1c0.2,4.6,3.3,7.8,7.6,7.6s7.4-3.5,7.2-8.1C1075.6,1301.5,1072.4,1298.2,1068.1,1298.3
	L1068.1,1298.3z M994.2,1297.2l-37.7,81.2l11.6,1.1l18-40.2c4.7-10.6,9.2-20.9,12.4-30.4l0.2,0c1.3,10,3.5,20.5,6.1,32.2l9.3,42.5
	l11.7,1.1l-19.7-86.4L994.2,1297.2z M946.8,1290.4l-10.7,59.6l10.8,1.9l10.7-59.6L946.8,1290.4z M937.4,1374.4
	c3.6,0.7,7.2-1.6,7.9-5.2c0-0.1,0-0.2,0.1-0.3c0.8-3.5-1.5-7-5-7.8c-0.1,0-0.2,0-0.3-0.1c-4.3-0.8-7.5,1.7-8.1,5.4
	c-0.8,3.5,1.4,7,4.9,7.9C937,1374.3,937.2,1374.4,937.4,1374.4L937.4,1374.4z M929,1286.7l-10.7-2.5l-20.3,86.4l10.7,2.5L929,1286.7
	z M900.4,1279.4l-10.6-3.1l-25,85.2l10.6,3.1L900.4,1279.4z M831.5,1255.4c-1,4.7-2.5,9.4-4.3,13.9l-8.1,21.1
	c-4.4,11.3-4.7,24.7,12.6,31.4c7.1,2.7,14.6,3.4,20.5,2.1l0.3-7.7c-5.5,1-11.1,0.5-16.3-1.5c-11.5-4.4-9.6-13.3-7.8-18l0.4-1.2
	c21.8,8.5,36.8,5.7,42-7.9c3.1-8.2,0.4-18.5-11-22.9c-6.7-2.8-14.3-2.1-20.5,1.8l-0.3-0.1l1.9-7.4L831.5,1255.4z M835,1278.6
	c0.5-1.1,1.1-2.1,1.8-3.1c4.2-5,11.2-6.7,17.3-4.2c5.2,2,8.5,6.9,5.9,13.5c-4.2,11-17.7,8.1-28.8,3.5L835,1278.6z M816.4,1248.2
	l-9.7-4.8l-14.3,28.9c-0.8,1.5-1.7,3-2.7,4.4c-5,6.7-12.5,9.6-19.5,6.1c-1.1-0.5-2.2-1.2-3.2-2l-4.6,9.3c0.8,0.7,1.7,1.3,2.6,1.7
	c6.6,3.3,14.8,1.6,20.9-4.4l0.4,0.2l-4.9,10.8l8.6,4.3c2.2-5.2,4.8-10.8,7.9-17.1L816.4,1248.2z M778.8,1230.5l-8.9-6l-20.4,30.3
	c-1,1.5-2.3,2.9-3.7,4c-4.5,3.6-11.7,5.3-17.4,1.5c-6.9-4.7-6.6-12.9-1.2-20.8l20.3-30.1l-8.9-6l-20.9,31c-1,1.5-2.3,2.9-3.8,4.1
	c-4.6,3.4-11.2,4.5-16.4,1c-7.4-5-7-13.1-0.5-22.8l19.1-28.4l-8.9-6l-19.9,29.5c-11.7,17.4-4.8,28.4,1.8,32.9
	c3.9,2.8,8.7,4.2,13.5,3.9c3.5-0.2,6.9-1.2,10-2.8l0.2,0.1c-2,7.5,1,15.4,7.4,19.6c8.3,5.6,16,4.3,22,1.4l0.3,0.2l-5,8.4l8,5.4
	c2.5-4.3,5.2-8.7,8.7-13.9L778.8,1230.5z M661.9,1140.4c-2.7,4-5.7,7.8-9.1,11.4l-15.3,16.7c-8.2,8.9-13.4,21.3,0.2,33.8
	c5.6,5.2,12.4,8.5,18.3,9.5l3.1-7c-5.5-1-10.5-3.6-14.7-7.3c-9.1-8.4-4.1-15.9-0.7-19.6l0.8-0.9c17.2,15.9,32.1,18.8,42,8
	c5.9-6.4,7.1-17-1.9-25.3c-5.2-5-12.6-7.2-19.7-5.9l-0.3-0.3l4.5-6.2L661.9,1140.4z M656.8,1163.3c0.8-0.9,1.8-1.6,2.8-2.2
	c5.8-3.1,12.9-2.2,17.6,2.4c4.1,3.8,5.4,9.5,0.6,14.8c-7.9,8.7-19.4,1-28.1-7.3L656.8,1163.3z M650.1,1128.5l-7.2-8.3l-27.5,23.8
	c-6.5,5.8-16.5,5.4-22.5-1c-6.8-7.9-3-15.9,4.4-22.3l26.4-22.8l-7.2-8.3l-27.3,23.6c-15.7,13.6-11,26.7-5.5,33
	c6.5,7.6,15.4,9.2,21.7,7.7l0.2,0.2l-7.2,7l6.4,7.4c3.5-3.6,7.3-7,12.1-11.1L650.1,1128.5z M577,1030.8l-87.7,18l6,9.9l43-9.4
	c11.3-2.5,22.2-5,31.8-8.1l0.1,0.2c-7.3,7.1-14.4,15.1-22.2,24.1l-28.7,32.8l6.1,10l57.7-67.3L577,1030.8z M528.9,929.4l-4-9.8
	l-75.9,36.9l5.3,12.8l43.4-1.7c11.3-0.6,20.9-1.3,29.6-2.6l0.1,0.3c-7.3,5.3-14.7,11.5-23,18.7l-32.2,28.8l5.3,12.8l80.1-26.7
	l-4-9.6l-34.3,11.7c-12,4.1-25.3,8.9-35.1,12.7l-0.1-0.2c8.3-6,17.1-13.3,26.6-21.5l31.9-27.9l-3.1-7.6l-43.5,1.8
	c-12.4,0.5-23.4,1.3-33.6,2.4l-0.1-0.3c9.8-3.9,22.5-10,33.2-15L528.9,929.4z M509.4,851.8l-88.5-13.3l2.2,11.4l43.6,5.9
	c11.5,1.6,22.6,2.9,32.6,3.4l0,0.2c-9.3,4.1-18.7,9.2-29.2,14.9l-38.2,20.9l2.3,11.5l77.4-43.3L509.4,851.8z M499.2,740.1l-0.4-10.6
	l-84,8.6l0.6,13.9l41.3,13.4c10.8,3.3,20.1,5.9,28.7,7.7l0,0.4c-8.7,2.5-17.8,5.7-28,9.6l-40.1,16l0.6,13.9l84.4,2.5l-0.4-10.4
	l-36.2-0.8c-12.6-0.2-26.8-0.3-37.3-0.1l0-0.3c9.9-2.8,20.6-6.6,32.3-11.1l39.5-15.2l-0.3-8.2l-41.4-13.2
	c-11.8-3.8-22.4-6.9-32.4-9.3l0-0.4c10.5-0.3,24.6-1.6,36.3-2.7L499.2,740.1z M507.2,660.6L428.5,618l-1.8,11.5l39,20.4
	c10.3,5.4,20.3,10.5,29.5,14.3l0,0.2c-10.1,0.7-20.7,2.3-32.5,4.1l-43,6.7l-1.8,11.6l87.5-14.4L507.2,660.6z M535.7,552l3.2-10.1
	l-81.9-20.6l-4.2,13.2l34.3,26.7c9,6.8,16.9,12.5,24.3,17.1l-0.1,0.4c-9-0.6-18.7-0.7-29.6-0.5l-43.2,1.3l-4.2,13.2l78.5,31.2
	l3.2-9.9l-33.7-13.1c-11.8-4.5-25.1-9.4-35-12.9l0.1-0.2c10.2,0.8,21.6,0.9,34.2,0.7l42.4-0.8l2.5-7.9l-34.4-26.6
	c-9.8-7.6-18.7-14.1-27.3-19.8l0.1-0.4c10,3.3,23.7,6.9,35,9.9L535.7,552z M570.6,480.1L511.4,413l-5.6,10.2l29.6,32.6
	c7.8,8.6,15.4,16.8,22.8,23.6l-0.1,0.2c-9.7-2.8-20.2-5-31.9-7.3l-42.7-8.6l-5.7,10.3l87,16.6L570.6,480.1z M595.9,439.5l-50.2-33.7
	l-6.1,9.1l50.2,33.7L595.9,439.5z M522.8,397.1c-2.1,3-1.4,7.2,1.6,9.3c0.1,0.1,0.2,0.1,0.3,0.2c2.9,2.1,7,1.4,9.1-1.5
	c0.1-0.1,0.1-0.2,0.2-0.3c2.4-3.6,1.5-7.6-1.7-9.6c-2.9-2.2-7-1.6-9.1,1.3C523,396.8,522.9,396.9,522.8,397.1z M606.5,424.6l6.6-8.8
	l-71-53.3l-6.6,8.8L606.5,424.6z M624.6,401.3l7.1-8.4l-68-57l-7.1,8.4L624.6,401.3z M674.2,347.8c-3.9-2.8-7.6-6-11-9.5l-16.1-15.9
	c-8.6-8.5-20.8-14.2-33.8-1c-5.4,5.4-8.9,12.1-10.1,17.9l6.9,3.3c1.2-5.4,4-10.4,7.9-14.4c8.7-8.8,16.1-3.5,19.6,0l0.9,0.9
	c-16.5,16.6-19.9,31.4-9.5,41.7c6.2,6.1,16.8,7.8,25.4-1c5.2-5.1,7.7-12.3,6.6-19.5l0.3-0.3l6,4.7L674.2,347.8z M651.5,341.8
	c0.8,0.9,1.5,1.8,2.1,2.9c2.9,5.9,1.7,13-3.1,17.5c-3.9,4-9.7,5-14.8,0c-8.4-8.3-0.3-19.4,8.3-27.8L651.5,341.8z M686.8,336.8l8.3-7
	l-20.8-24.6c-1.1-1.3-2.1-2.7-2.9-4.2c-4.2-7.3-3.8-15.3,2.2-20.3c1-0.8,2-1.5,3.1-2.1l-6.7-7.9c-0.9,0.5-1.8,1-2.6,1.7
	c-5.6,4.8-7.4,12.9-4.3,20.9l-0.4,0.3l-7.9-8.8l-7.4,6.2c3.9,4.1,8,8.7,12.6,14.1L686.8,336.8z M718,309.4l9.1-5.8l-19.7-30.8
	c-1-1.5-1.7-3.2-2.2-5c-1.5-5.6-0.2-12.9,5.6-16.6c7.1-4.5,14.4-0.9,19.6,7.2l19.5,30.5l9.1-5.8l-20.1-31.5c-1-1.6-1.8-3.3-2.2-5.1
	c-1.3-5.5,0.3-12.1,5.6-15.4c7.5-4.8,14.8-1.2,21.1,8.6l18.4,28.9l9.1-5.8l-19.2-30c-11.3-17.7-24.1-15.7-30.9-11.4
	c-4.2,2.4-7.3,6.2-9,10.8c-1.2,3.3-1.7,6.8-1.4,10.3l-0.2,0.1c-6-4.8-14.5-5.2-21-1c-8.4,5.4-10.3,12.9-10,19.6l-0.3,0.2l-5.7-7.9
	l-8.1,5.2c3,4,5.9,8.3,9.2,13.5L718,309.4z M840.5,210.2c-0.5-1.6-1.1-3.3-1.7-4.8c-4.5-10.2-16.3-23.9-34.4-16
	c-16.1,7.1-20.1,24.6-12.8,41.3s22.5,23.4,39.5,15.9c8.8-3.9,14.1-8.4,16.9-11.6l-4.9-6.4c-3.1,3.3-6.9,6.4-14.1,9.6
	c-10.1,4.4-21.2,2.7-27.5-10.8L840.5,210.2z M798.5,220.2c-2.3-7.3-2-18.7,8.2-23.2c11.3-5,18.5,3.7,21.2,10.2L798.5,220.2z
	 M878.8,134.3l10.5,34.6l-0.2,0.1c-4-3.9-11.3-6.2-20.2-3.6c-14.1,4.3-22.5,19.8-16.5,39c5.3,17.6,19.7,26.2,33.7,21.9
	c9.5-2.9,15-9.9,16.3-17.4l0.2-0.1l3.5,9.9l9.5-2.9c-1.6-3.8-3.5-9.7-5-14.8l-21.2-70L878.8,134.3z M897.2,194.9
	c0.5,1.5,0.8,3.1,0.9,4.7c0.5,8.5-4.6,15.1-11.6,17.2c-11.4,3.4-20-4.5-23.6-16.2c-3.9-12.8-0.3-24.3,10.6-27.6
	c7.3-2.2,15.2,0.9,18.9,7.6c0.8,1.3,1.4,2.8,1.8,4.3L897.2,194.9z M943.8,210.2L931.6,151l-10.8,2.2l12.2,59.3L943.8,210.2z
	 M921.4,128.7c-3.6,0.7-6.1,4.1-5.4,7.8c0,0.1,0,0.2,0.1,0.3c0.6,3.6,4,5.9,7.6,5.3c0.1,0,0.2,0,0.3-0.1c4.3-0.9,6.4-4.4,5.5-8
	c-0.5-3.6-3.9-6-7.4-5.5C921.7,128.6,921.5,128.7,921.4,128.7z M1004.9,201.4c-1.3-4.7-2.2-9.4-2.8-14.3l-2.7-22.5
	c-1.5-12-7.5-24-25.8-21.8c-7.6,0.9-14.5,3.9-19.1,7.7l3.4,6.9c4.3-3.5,9.6-5.7,15.1-6.4c12.3-1.5,14.7,7.3,15.3,12.2l0.2,1.2
	c-23.2,2.7-35.1,12.2-33.4,26.8c1.1,8.7,8.3,16.5,20.5,15c7.2-0.7,13.6-4.9,17.3-11.2l0.4,0l1.8,7.5L1004.9,201.4z M990.9,182.6
	c0.1,1.2,0.1,2.4-0.2,3.6c-1.4,6.4-6.8,11.2-13.3,11.8c-5.6,0.7-10.7-2.1-11.6-9.2c-1.4-11.7,11.8-15.4,23.8-16.6L990.9,182.6z
	 M1048.5,199.5l10.9,0.4l1.3-33.7c2.9,0.7,5.8,1.1,8.7,1.1c10.6,0.4,20.1-2.3,26.1-8.2c4.4-4.2,6.9-10.1,7.2-17.7
	c0.3-7.5-2.2-13.7-6.7-17.9c-4.8-4.7-12.6-7.5-23.3-7.9c-7-0.3-14-0.1-20.9,0.8L1048.5,199.5z M1062.4,124.6
	c3.4-0.5,6.8-0.7,10.3-0.5c12,0.5,19.6,6.2,19.2,17.3c-0.5,11.6-8.7,17.7-21.8,17.1c-3,0-6-0.5-8.9-1.2L1062.4,124.6z M1112.5,203.4
	l10.8,1.4l4.3-32c0.3-1.7,0.6-3.4,1.2-5c2.6-8,8.8-13.1,16.5-12c1.3,0.1,2.5,0.4,3.7,0.9l1.4-10.3c-1-0.4-2-0.7-3-0.8
	c-7.3-1-14.6,3.2-18.4,10.9l-0.5-0.1l1.2-11.8l-9.5-1.3c-0.4,5.6-1.1,11.7-2,18.8L1112.5,203.4z M1190.9,154.4
	c-16.3-3.8-31.9,4.7-36.6,24.4c-4.4,18.6,5.2,33.2,21.1,36.9c14.2,3.3,31.6-2.6,36.7-24.4C1216.4,173.4,1207.8,158.4,1190.9,154.4
	L1190.9,154.4z M1188.8,162.4c12.7,3,14.7,16.8,12.3,26.8c-3.1,13.3-13,21.1-23.3,18.7c-10.5-2.5-15.6-13.9-12.6-26.8
	C1167.9,169.8,1176.1,159.4,1188.8,162.4L1188.8,162.4z M1288.1,156.9l-12.7,33.8l-0.2-0.1c-0.9-5.5-5.2-11.8-13.8-15.1
	c-13.8-5.2-29.9,2-36.8,20.9c-6.4,17.2-0.2,32.7,13.5,37.9c9.2,3.5,17.9,1.2,23.5-3.9l0.2,0.1l-3.2,10l9.2,3.5c1.1-4,3.1-9.8,5-14.8
	l25.6-68.5L1288.1,156.9z M1265.9,216.3c-0.5,1.5-1.2,2.9-2.1,4.3c-4.8,7-12.8,9.2-19.7,6.6c-11.1-4.2-13.2-15.7-8.9-27.2
	c4.7-12.5,14.5-19.5,25.2-15.5c7.2,2.6,11.5,9.9,10.4,17.5c-0.2,1.5-0.6,3.1-1.2,4.5L1265.9,216.3z M1357,221.6l-9.7-5.1l-17.3,32.8
	c-0.9,1.7-2.1,3.2-3.5,4.5c-4.9,4.2-11.8,5-17.5,2.1c-8.8-4.7-8.3-13.2-2.9-23.3l15.6-29.6l-9.7-5.1l-16.5,31.3
	c-9.9,18.8-2.3,28.7,6.1,33.2c7.2,3.9,16,3.7,22.9-0.6l0.2,0.1l-4.1,9l8.6,4.6c1.9-4.4,4.3-9.3,7.3-14.8L1357,221.6z M1384.2,299.5
	c-4.6-0.7-9-2.5-12.8-5.1c-9.9-6.8-12.5-19-4.6-30.5c7.1-10.4,19.1-14.7,30.6-6.8c5,3.4,7.6,6.8,8.9,9.6l6.9-5.6
	c-2.8-4.5-6.5-8.3-10.8-11.2c-16.3-11.1-34.4-7.2-44.9,8.2c-10.4,15.3-7.6,32.2,7.5,42.5c6.7,4.6,13.1,6.5,16.3,6.9L1384.2,299.5z
	 M1440.8,262.1l-9.2,11.2l-7.2-6l-5.3,6.5l7.2,6l-21,25.4c-4.5,5.5-7.1,10.4-6.8,14.9c0.1,4,2.3,7.9,6.2,11.1
	c2.5,2.2,5.4,3.9,8.5,5.1l4.9-6.7c-1.9-0.9-3.8-2.1-5.4-3.5c-4.7-3.9-3.7-8.5,1.1-14.3l20.8-25.2l12.1,10l5.3-6.5l-12.1-10
	l11.1-13.4L1440.8,262.1z M1430.5,352.8l41.4-44.1l-8-7.5l-41.4,44.1L1430.5,352.8z M1484.3,287.6c-2.6-2.6-6.9-2.6-9.5,0
	c-0.1,0.1-0.2,0.2-0.2,0.3c-2.6,2.6-2.6,6.7,0,9.3c0.1,0.1,0.1,0.1,0.2,0.2c3.2,3,7.3,2.7,9.7-0.1c2.6-2.5,2.7-6.6,0.2-9.2
	C1484.6,287.8,1484.4,287.7,1484.3,287.6L1484.3,287.6z M1507.1,343.2c-11.2-12.5-28.8-14.5-43.9-1c-14.3,12.7-14.8,30.1-3.9,42.4
	c9.7,10.9,27.3,16,44,1.1C1517.1,373.4,1518.7,356.2,1507.1,343.2L1507.1,343.2z M1500.8,348.5c8.7,9.7,2.4,22.2-5.3,29
	c-10.2,9.1-22.8,9.8-29.8,1.9c-7.2-8-4.8-20.4,5.1-29.2C1479.4,342.6,1492.1,338.8,1500.8,348.5L1500.8,348.5z M1488.7,417.3
	l6.3,9.1l29.9-20.6c7.1-5.1,17-3.5,22.3,3.5c5.9,8.5,1.3,16.1-6.8,21.7l-28.7,19.8l6.2,9.1l29.8-20.5c17.1-11.8,13.8-25.3,9.1-32.2
	c-5.7-8.2-14.3-10.8-20.7-10l-0.1-0.2l7.9-6.2l-5.5-8c-3.9,3.1-8.1,6.2-13.2,9.7L1488.7,417.3z M1527.3,470.1
	c0,5.9,1.5,11.8,4.4,16.9c6.8,12.6,17.3,16.3,26.7,11.3c7.9-4.3,10-11.5,8.5-22.6c-1.1-8.4-0.8-12.6,3.6-15c4-2.1,9-0.7,12.1,5
	c2.1,3.8,3,8.2,2.8,12.6l8.3-1.4c0-5.2-1.2-10.3-3.8-14.9c-6.2-11.4-17-14.6-25.5-9.9c-6.4,3.4-9.2,10.8-7.5,22.2
	c1.2,8.6,0.2,12.7-4.4,15.2c-4.4,2.4-9.7,1-13.5-6.1c-2.3-4.6-3.4-9.7-3-14.8L1527.3,470.1z M1569.3,568.3l89.5-0.2l-3.9-10.9
	l-44,0.7c-11.6,0.2-22.8,0.5-32.8,1.6l-0.1-0.2c8.5-5.5,17.1-11.9,26.6-19.1l34.6-26.4l-4-11.1l-69.9,54.4L1569.3,568.3z
	 M1596.2,677.2l2,10.4l81.7-21.1l-2.6-13.6l-42.8-7c-11.1-1.7-20.8-2.9-29.5-3.4l-0.1-0.4c8.2-3.7,16.7-8.3,26.3-13.7l37.3-21.8
	l-2.6-13.6l-83.8,10.2l2,10.2l35.9-4.6c12.5-1.6,26.5-3.7,36.9-5.4l0.1,0.2c-9.4,4.2-19.4,9.6-30.3,15.8l-36.8,21l1.6,8.1l42.9,6.9
	c12.2,2,23.2,3.4,33.4,4.4l0.1,0.4c-10.3,1.9-24.1,5.3-35.5,8.1L1596.2,677.2z M1599.9,757l83.8,31.5l0.2-11.6l-41.4-14.9
	c-10.9-3.9-21.5-7.6-31.2-10.1v-0.2c9.9-2.1,20.2-5,31.6-8.5l41.7-12.5l0.2-11.7l-84.7,26.1L1599.9,757z M1588.1,868.7l-1.7,10.5
	l84,8l2.2-13.7l-37.9-21.2c-9.9-5.4-18.6-9.8-26.6-13.2l0.1-0.4c9-0.7,18.6-2.1,29.4-4l42.5-7.8l2.2-13.7l-82.3-19l-1.6,10.2
	l35.3,7.9c12.3,2.7,26.2,5.5,36.5,7.4l0,0.2c-10.2,0.8-21.5,2.4-33.9,4.5l-41.8,7.2l-1.3,8.1l38.1,21.1c10.8,6,20.6,11.1,29.9,15.5
	l-0.1,0.4c-10.3-1.8-24.4-3.2-36.1-4.5L1588.1,868.7z M1564.4,945l68.6,57.4l4-10.9l-34.1-27.8c-9-7.3-17.8-14.3-26.1-19.9l0.1-0.2
	c10,1.3,20.7,1.9,32.7,2.4l43.5,2l4.1-11l-88.6-3.3L1564.4,945z M1514.9,1045.7l-5.2,9.3l76.2,36.4l6.8-12.1l-28.3-32.9
	c-7.5-8.4-14.1-15.6-20.5-21.6l0.2-0.3c8.7,2.4,18.2,4.4,28.9,6.4l42.6,7.3l6.8-12.1l-70.7-46.2l-5.1,9.1l30.5,19.6
	c10.7,6.8,22.7,14.2,31.7,19.6l-0.1,0.2c-9.9-2.8-21-5.1-33.3-7.4l-41.7-7.6l-4,7.2l28.5,32.9c8.1,9.4,15.6,17.5,22.8,24.9l-0.2,0.3
	c-9.1-5.2-21.8-11.4-32.4-16.6L1514.9,1045.7z"/>
</svg>
